<svg width="1944" height="778" viewBox="0 0 1944 778" fill="none" xmlns="http://www.w3.org/2000/svg">
<rect x="1943.66" y="648.126" width="128.862" height="128.862" transform="rotate(180 1943.66 648.126)" stroke="white" stroke-opacity="0.15" stroke-width="0.674669" stroke-dasharray="9.45 9.45"/>
<rect x="1943.66" y="518.59" width="128.862" height="128.862" transform="rotate(180 1943.66 518.59)" stroke="white" stroke-opacity="0.15" stroke-width="0.674669" stroke-dasharray="9.45 9.45"/>
<rect x="1943.66" y="389.053" width="128.862" height="128.862" transform="rotate(180 1943.66 389.053)" stroke="white" stroke-opacity="0.15" stroke-width="0.674669" stroke-dasharray="9.45 9.45"/>
<rect x="1943.66" y="259.517" width="128.862" height="128.862" transform="rotate(180 1943.66 259.517)" stroke="white" stroke-opacity="0.15" stroke-width="0.674669" stroke-dasharray="9.45 9.45"/>
<mask id="path-5-inside-1_1099_6147" fill="white">
<path d="M1944 130.318H1814.46V0.781448H1944V130.318Z"/>
</mask>
<path d="M1944 130.318V130.655H1944.34V130.318H1944ZM1814.46 130.318H1814.13V130.655H1814.46V130.318ZM1944.34 130.318V125.692H1943.66V130.318H1944.34ZM1944.34 116.439V107.186H1943.66V116.439H1944.34ZM1944.34 97.9338V88.6812H1943.66V97.9338H1944.34ZM1944.34 79.4286V70.176H1943.66V79.4286H1944.34ZM1944.34 60.9234V51.6708H1943.66V60.9234H1944.34ZM1944.34 42.4182V33.1656H1943.66V42.4182H1944.34ZM1944.34 23.9129V14.6603H1943.66V23.9129H1944.34ZM1944.34 5.40775V0.781448H1943.66V5.40775H1944.34ZM1814.13 0.781448V5.40775H1814.8V0.781448H1814.13ZM1814.13 14.6604V23.913H1814.8V14.6604H1814.13ZM1814.13 33.1656V42.4182H1814.8V33.1656H1814.13ZM1814.13 51.6708V60.9234H1814.8V51.6708H1814.13ZM1814.13 70.176V79.4286H1814.8V70.176H1814.13ZM1814.13 88.6812V97.9338H1814.8V88.6812H1814.13ZM1814.13 107.186V116.439H1814.8V107.186H1814.13ZM1814.13 125.692V130.318H1814.8V125.692H1814.13ZM1814.46 130.655H1819.09V129.981H1814.46V130.655ZM1828.34 130.655H1837.59V129.981H1828.34V130.655ZM1846.85 130.655H1856.1V129.981H1846.85V130.655ZM1865.35 130.655H1874.61V129.981H1865.35V130.655ZM1883.86 130.655H1893.11V129.981H1883.86V130.655ZM1902.36 130.655H1911.62V129.981H1902.36V130.655ZM1920.87 130.655H1930.12V129.981H1920.87V130.655ZM1939.37 130.655H1944V129.981H1939.37V130.655ZM1944 130.318V130.993H1944.67V130.318H1944ZM1814.46 130.318H1813.79V130.993H1814.46V130.318ZM1944.67 130.318V125.692H1943.33V130.318H1944.67ZM1944.67 116.439V107.186H1943.33V116.439H1944.67ZM1944.67 97.9338V88.6812H1943.33V97.9338H1944.67ZM1944.67 79.4286V70.176H1943.33V79.4286H1944.67ZM1944.67 60.9234V51.6708H1943.33V60.9234H1944.67ZM1944.67 42.4182V33.1656H1943.33V42.4182H1944.67ZM1944.67 23.9129V14.6603H1943.33V23.9129H1944.67ZM1944.67 5.40775V0.781448H1943.33V5.40775H1944.67ZM1813.79 0.781448V5.40775H1815.14V0.781448H1813.79ZM1813.79 14.6604V23.913H1815.14V14.6604H1813.79ZM1813.79 33.1656V42.4182H1815.14V33.1656H1813.79ZM1813.79 51.6708V60.9234H1815.14V51.6708H1813.79ZM1813.79 70.176V79.4286H1815.14V70.176H1813.79ZM1813.79 88.6812V97.9338H1815.14V88.6812H1813.79ZM1813.79 107.186V116.439H1815.14V107.186H1813.79ZM1813.79 125.692V130.318H1815.14V125.692H1813.79ZM1814.46 130.993H1819.09V129.643H1814.46V130.993ZM1828.34 130.993H1837.59V129.643H1828.34V130.993ZM1846.85 130.993H1856.1V129.643H1846.85V130.993ZM1865.35 130.993H1874.61V129.643H1865.35V130.993ZM1883.86 130.993H1893.11V129.643H1883.86V130.993ZM1902.36 130.993H1911.62V129.643H1902.36V130.993ZM1920.87 130.993H1930.12V129.643H1920.87V130.993ZM1939.37 130.993H1944V129.643H1939.37V130.993Z" fill="white" fill-opacity="0.15" mask="url(#path-5-inside-1_1099_6147)"/>
<rect x="1814.13" y="777.663" width="128.862" height="128.862" transform="rotate(180 1814.13 777.663)" stroke="white" stroke-opacity="0.15" stroke-width="0.674669" stroke-dasharray="9.45 9.45"/>
<rect x="1814.13" y="648.126" width="128.862" height="128.862" transform="rotate(180 1814.13 648.126)" stroke="white" stroke-opacity="0.15" stroke-width="0.674669" stroke-dasharray="9.45 9.45"/>
<rect x="1814.13" y="518.59" width="128.862" height="128.862" transform="rotate(180 1814.13 518.59)" stroke="white" stroke-opacity="0.15" stroke-width="0.674669" stroke-dasharray="9.45 9.45"/>
<rect x="1814.13" y="389.053" width="128.862" height="128.862" transform="rotate(180 1814.13 389.053)" stroke="white" stroke-opacity="0.15" stroke-width="0.674669" stroke-dasharray="9.45 9.45"/>
<rect x="1814.13" y="259.517" width="128.862" height="128.862" transform="rotate(180 1814.13 259.517)" stroke="white" stroke-opacity="0.15" stroke-width="0.674669" stroke-dasharray="9.45 9.45"/>
<mask id="path-12-inside-2_1099_6147" fill="white">
<path d="M1814.46 130.318H1684.93V0.781448H1814.46V130.318Z"/>
</mask>
<path d="M1814.46 130.318V130.655H1814.8V130.318H1814.46ZM1684.93 130.318H1684.59V130.655H1684.93V130.318ZM1814.8 130.318V125.692H1814.13V130.318H1814.8ZM1814.8 116.439V107.186H1814.13V116.439H1814.8ZM1814.8 97.9338V88.6812H1814.13V97.9338H1814.8ZM1814.8 79.4286V70.176H1814.13V79.4286H1814.8ZM1814.8 60.9234V51.6708H1814.13V60.9234H1814.8ZM1814.8 42.4182V33.1656H1814.13V42.4182H1814.8ZM1814.8 23.9129V14.6603H1814.13V23.9129H1814.8ZM1814.8 5.40775V0.781448H1814.13V5.40775H1814.8ZM1684.59 0.781448V5.40775H1685.26V0.781448H1684.59ZM1684.59 14.6604V23.913H1685.26V14.6604H1684.59ZM1684.59 33.1656V42.4182H1685.26V33.1656H1684.59ZM1684.59 51.6708V60.9234H1685.26V51.6708H1684.59ZM1684.59 70.176V79.4286H1685.26V70.176H1684.59ZM1684.59 88.6812V97.9338H1685.26V88.6812H1684.59ZM1684.59 107.186V116.439H1685.26V107.186H1684.59ZM1684.59 125.692V130.318H1685.26V125.692H1684.59ZM1684.93 130.655H1689.55V129.981H1684.93V130.655ZM1698.81 130.655H1708.06V129.981H1698.81V130.655ZM1717.31 130.655H1726.56V129.981H1717.31V130.655ZM1735.82 130.655H1745.07V129.981H1735.82V130.655ZM1754.32 130.655H1763.57V129.981H1754.32V130.655ZM1772.83 130.655H1782.08V129.981H1772.83V130.655ZM1791.33 130.655H1800.58V129.981H1791.33V130.655ZM1809.84 130.655H1814.46V129.981H1809.84V130.655ZM1814.46 130.318V130.993H1815.14V130.318H1814.46ZM1684.93 130.318H1684.25V130.993H1684.93V130.318ZM1815.14 130.318V125.692H1813.79V130.318H1815.14ZM1815.14 116.439V107.186H1813.79V116.439H1815.14ZM1815.14 97.9338V88.6812H1813.79V97.9338H1815.14ZM1815.14 79.4286V70.176H1813.79V79.4286H1815.14ZM1815.14 60.9234V51.6708H1813.79V60.9234H1815.14ZM1815.14 42.4182V33.1656H1813.79V42.4182H1815.14ZM1815.14 23.9129V14.6603H1813.79V23.9129H1815.14ZM1815.14 5.40775V0.781448H1813.79V5.40775H1815.14ZM1684.25 0.781448V5.40775H1685.6V0.781448H1684.25ZM1684.25 14.6604V23.913H1685.6V14.6604H1684.25ZM1684.25 33.1656V42.4182H1685.6V33.1656H1684.25ZM1684.25 51.6708V60.9234H1685.6V51.6708H1684.25ZM1684.25 70.176V79.4286H1685.6V70.176H1684.25ZM1684.25 88.6812V97.9338H1685.6V88.6812H1684.25ZM1684.25 107.186V116.439H1685.6V107.186H1684.25ZM1684.25 125.692V130.318H1685.6V125.692H1684.25ZM1684.93 130.993H1689.55V129.643H1684.93V130.993ZM1698.81 130.993H1708.06V129.643H1698.81V130.993ZM1717.31 130.993H1726.56V129.643H1717.31V130.993ZM1735.82 130.993H1745.07V129.643H1735.82V130.993ZM1754.32 130.993H1763.57V129.643H1754.32V130.993ZM1772.83 130.993H1782.08V129.643H1772.83V130.993ZM1791.33 130.993H1800.58V129.643H1791.33V130.993ZM1809.84 130.993H1814.46V129.643H1809.84V130.993Z" fill="white" fill-opacity="0.15" mask="url(#path-12-inside-2_1099_6147)"/>
<rect x="1684.59" y="777.663" width="128.862" height="128.862" transform="rotate(180 1684.59 777.663)" stroke="white" stroke-opacity="0.15" stroke-width="0.674669" stroke-dasharray="9.45 9.45"/>
<rect x="1684.59" y="648.126" width="128.862" height="128.862" transform="rotate(180 1684.59 648.126)" stroke="white" stroke-opacity="0.15" stroke-width="0.674669" stroke-dasharray="9.45 9.45"/>
<rect x="1684.59" y="518.59" width="128.862" height="128.862" transform="rotate(180 1684.59 518.59)" stroke="white" stroke-opacity="0.15" stroke-width="0.674669" stroke-dasharray="9.45 9.45"/>
<rect x="1684.59" y="389.053" width="128.862" height="128.862" transform="rotate(180 1684.59 389.053)" stroke="white" stroke-opacity="0.15" stroke-width="0.674669" stroke-dasharray="9.45 9.45"/>
<rect x="1684.59" y="259.517" width="128.862" height="128.862" transform="rotate(180 1684.59 259.517)" stroke="white" stroke-opacity="0.15" stroke-width="0.674669" stroke-dasharray="9.45 9.45"/>
<mask id="path-19-inside-3_1099_6147" fill="white">
<path d="M1684.93 130.318H1555.39V0.781448H1684.93V130.318Z"/>
</mask>
<path d="M1684.93 130.318V130.655H1685.26V130.318H1684.93ZM1555.39 130.318H1555.05V130.655H1555.39V130.318ZM1685.26 130.318V125.692H1684.59V130.318H1685.26ZM1685.26 116.439V107.186H1684.59V116.439H1685.26ZM1685.26 97.9338V88.6812H1684.59V97.9338H1685.26ZM1685.26 79.4286V70.176H1684.59V79.4286H1685.26ZM1685.26 60.9234V51.6708H1684.59V60.9234H1685.26ZM1685.26 42.4182V33.1656H1684.59V42.4182H1685.26ZM1685.26 23.9129V14.6603H1684.59V23.9129H1685.26ZM1685.26 5.40775V0.781448H1684.59V5.40775H1685.26ZM1555.05 0.781448V5.40775H1555.73V0.781448H1555.05ZM1555.05 14.6604V23.913H1555.73V14.6604H1555.05ZM1555.05 33.1656V42.4182H1555.73V33.1656H1555.05ZM1555.05 51.6708V60.9234H1555.73V51.6708H1555.05ZM1555.05 70.176V79.4286H1555.73V70.176H1555.05ZM1555.05 88.6812V97.9338H1555.73V88.6812H1555.05ZM1555.05 107.186V116.439H1555.73V107.186H1555.05ZM1555.05 125.692V130.318H1555.73V125.692H1555.05ZM1555.39 130.655H1560.02V129.981H1555.39V130.655ZM1569.27 130.655H1578.52V129.981H1569.27V130.655ZM1587.77 130.655H1597.03V129.981H1587.77V130.655ZM1606.28 130.655H1615.53V129.981H1606.28V130.655ZM1624.79 130.655H1634.04V129.981H1624.79V130.655ZM1643.29 130.655H1652.54V129.981H1643.29V130.655ZM1661.8 130.655H1671.05V129.981H1661.8V130.655ZM1680.3 130.655H1684.93V129.981H1680.3V130.655ZM1684.93 130.318V130.993H1685.6V130.318H1684.93ZM1555.39 130.318H1554.72V130.993H1555.39V130.318ZM1685.6 130.318V125.692H1684.25V130.318H1685.6ZM1685.6 116.439V107.186H1684.25V116.439H1685.6ZM1685.6 97.9338V88.6812H1684.25V97.9338H1685.6ZM1685.6 79.4286V70.176H1684.25V79.4286H1685.6ZM1685.6 60.9234V51.6708H1684.25V60.9234H1685.6ZM1685.6 42.4182V33.1656H1684.25V42.4182H1685.6ZM1685.6 23.9129V14.6603H1684.25V23.9129H1685.6ZM1685.6 5.40775V0.781448H1684.25V5.40775H1685.6ZM1554.72 0.781448V5.40775H1556.07V0.781448H1554.72ZM1554.72 14.6604V23.913H1556.07V14.6604H1554.72ZM1554.72 33.1656V42.4182H1556.07V33.1656H1554.72ZM1554.72 51.6708V60.9234H1556.07V51.6708H1554.72ZM1554.72 70.176V79.4286H1556.07V70.176H1554.72ZM1554.72 88.6812V97.9338H1556.07V88.6812H1554.72ZM1554.72 107.186V116.439H1556.07V107.186H1554.72ZM1554.72 125.692V130.318H1556.07V125.692H1554.72ZM1555.39 130.993H1560.02V129.643H1555.39V130.993ZM1569.27 130.993H1578.52V129.643H1569.27V130.993ZM1587.77 130.993H1597.03V129.643H1587.77V130.993ZM1606.28 130.993H1615.53V129.643H1606.28V130.993ZM1624.79 130.993H1634.04V129.643H1624.79V130.993ZM1643.29 130.993H1652.54V129.643H1643.29V130.993ZM1661.8 130.993H1671.05V129.643H1661.8V130.993ZM1680.3 130.993H1684.93V129.643H1680.3V130.993Z" fill="white" fill-opacity="0.15" mask="url(#path-19-inside-3_1099_6147)"/>
<rect x="1555.05" y="777.663" width="128.862" height="128.862" transform="rotate(180 1555.05 777.663)" stroke="white" stroke-opacity="0.15" stroke-width="0.674669" stroke-dasharray="9.45 9.45"/>
<rect x="1555.05" y="648.126" width="128.862" height="128.862" transform="rotate(180 1555.05 648.126)" stroke="white" stroke-opacity="0.15" stroke-width="0.674669" stroke-dasharray="9.45 9.45"/>
<rect x="1555.05" y="518.59" width="128.862" height="128.862" transform="rotate(180 1555.05 518.59)" stroke="white" stroke-opacity="0.15" stroke-width="0.674669" stroke-dasharray="9.45 9.45"/>
<rect x="1555.05" y="389.053" width="128.862" height="128.862" transform="rotate(180 1555.05 389.053)" stroke="white" stroke-opacity="0.15" stroke-width="0.674669" stroke-dasharray="9.45 9.45"/>
<rect x="1555.05" y="259.517" width="128.862" height="128.862" transform="rotate(180 1555.05 259.517)" stroke="white" stroke-opacity="0.15" stroke-width="0.674669" stroke-dasharray="9.45 9.45"/>
<mask id="path-26-inside-4_1099_6147" fill="white">
<path d="M1555.39 130.318H1425.85V0.781448H1555.39V130.318Z"/>
</mask>
<path d="M1555.39 130.318V130.655H1555.73V130.318H1555.39ZM1425.85 130.318H1425.52V130.655H1425.85V130.318ZM1555.73 130.318V125.692H1555.05V130.318H1555.73ZM1555.73 116.439V107.186H1555.05V116.439H1555.73ZM1555.73 97.9338V88.6812H1555.05V97.9338H1555.73ZM1555.73 79.4286V70.176H1555.05V79.4286H1555.73ZM1555.73 60.9234V51.6708H1555.05V60.9234H1555.73ZM1555.73 42.4182V33.1656H1555.05V42.4182H1555.73ZM1555.73 23.9129V14.6603H1555.05V23.9129H1555.73ZM1555.73 5.40775V0.781448H1555.05V5.40775H1555.73ZM1425.52 0.781448V5.40775H1426.19V0.781448H1425.52ZM1425.52 14.6604V23.913H1426.19V14.6604H1425.52ZM1425.52 33.1656V42.4182H1426.19V33.1656H1425.52ZM1425.52 51.6708V60.9234H1426.19V51.6708H1425.52ZM1425.52 70.176V79.4286H1426.19V70.176H1425.52ZM1425.52 88.6812V97.9338H1426.19V88.6812H1425.52ZM1425.52 107.186V116.439H1426.19V107.186H1425.52ZM1425.52 125.692V130.318H1426.19V125.692H1425.52ZM1425.85 130.655H1430.48V129.981H1425.85V130.655ZM1439.73 130.655H1448.99V129.981H1439.73V130.655ZM1458.24 130.655H1467.49V129.981H1458.24V130.655ZM1476.74 130.655H1486V129.981H1476.74V130.655ZM1495.25 130.655H1504.5V129.981H1495.25V130.655ZM1513.75 130.655H1523.01V129.981H1513.75V130.655ZM1532.26 130.655H1541.51V129.981H1532.26V130.655ZM1550.76 130.655H1555.39V129.981H1550.76V130.655ZM1555.39 130.318V130.993H1556.07V130.318H1555.39ZM1425.85 130.318H1425.18V130.993H1425.85V130.318ZM1556.07 130.318V125.692H1554.72V130.318H1556.07ZM1556.07 116.439V107.186H1554.72V116.439H1556.07ZM1556.07 97.9338V88.6812H1554.72V97.9338H1556.07ZM1556.07 79.4286V70.176H1554.72V79.4286H1556.07ZM1556.07 60.9234V51.6708H1554.72V60.9234H1556.07ZM1556.07 42.4182V33.1656H1554.72V42.4182H1556.07ZM1556.07 23.9129V14.6603H1554.72V23.9129H1556.07ZM1556.07 5.40775V0.781448H1554.72V5.40775H1556.07ZM1425.18 0.781448V5.40775H1426.53V0.781448H1425.18ZM1425.18 14.6604V23.913H1426.53V14.6604H1425.18ZM1425.18 33.1656V42.4182H1426.53V33.1656H1425.18ZM1425.18 51.6708V60.9234H1426.53V51.6708H1425.18ZM1425.18 70.176V79.4286H1426.53V70.176H1425.18ZM1425.18 88.6812V97.9338H1426.53V88.6812H1425.18ZM1425.18 107.186V116.439H1426.53V107.186H1425.18ZM1425.18 125.692V130.318H1426.53V125.692H1425.18ZM1425.85 130.993H1430.48V129.643H1425.85V130.993ZM1439.73 130.993H1448.99V129.643H1439.73V130.993ZM1458.24 130.993H1467.49V129.643H1458.24V130.993ZM1476.74 130.993H1486V129.643H1476.74V130.993ZM1495.25 130.993H1504.5V129.643H1495.25V130.993ZM1513.75 130.993H1523.01V129.643H1513.75V130.993ZM1532.26 130.993H1541.51V129.643H1532.26V130.993ZM1550.76 130.993H1555.39V129.643H1550.76V130.993Z" fill="white" fill-opacity="0.15" mask="url(#path-26-inside-4_1099_6147)"/>
<rect x="1425.52" y="777.663" width="128.862" height="128.862" transform="rotate(180 1425.52 777.663)" stroke="white" stroke-opacity="0.15" stroke-width="0.674669" stroke-dasharray="9.45 9.45"/>
<rect x="1425.52" y="648.126" width="128.862" height="128.862" transform="rotate(180 1425.52 648.126)" stroke="white" stroke-opacity="0.15" stroke-width="0.674669" stroke-dasharray="9.45 9.45"/>
<rect x="1425.52" y="518.59" width="128.862" height="128.862" transform="rotate(180 1425.52 518.59)" stroke="white" stroke-opacity="0.15" stroke-width="0.674669" stroke-dasharray="9.45 9.45"/>
<rect x="1425.52" y="389.053" width="128.862" height="128.862" transform="rotate(180 1425.52 389.053)" stroke="white" stroke-opacity="0.15" stroke-width="0.674669" stroke-dasharray="9.45 9.45"/>
<rect x="1425.52" y="259.517" width="128.862" height="128.862" transform="rotate(180 1425.52 259.517)" stroke="white" stroke-opacity="0.15" stroke-width="0.674669" stroke-dasharray="9.45 9.45"/>
<mask id="path-33-inside-5_1099_6147" fill="white">
<path d="M1425.85 130.318H1296.32V0.781448H1425.85V130.318Z"/>
</mask>
<path d="M1425.85 130.318V130.655H1426.19V130.318H1425.85ZM1296.32 130.318H1295.98V130.655H1296.32V130.318ZM1426.19 130.318V125.692H1425.52V130.318H1426.19ZM1426.19 116.439V107.186H1425.52V116.439H1426.19ZM1426.19 97.9338V88.6812H1425.52V97.9338H1426.19ZM1426.19 79.4286V70.176H1425.52V79.4286H1426.19ZM1426.19 60.9234V51.6708H1425.52V60.9234H1426.19ZM1426.19 42.4182V33.1656H1425.52V42.4182H1426.19ZM1426.19 23.9129V14.6603H1425.52V23.9129H1426.19ZM1426.19 5.40775V0.781448H1425.52V5.40775H1426.19ZM1295.98 0.781448V5.40775H1296.66V0.781448H1295.98ZM1295.98 14.6604V23.913H1296.66V14.6604H1295.98ZM1295.98 33.1656V42.4182H1296.66V33.1656H1295.98ZM1295.98 51.6708V60.9234H1296.66V51.6708H1295.98ZM1295.98 70.176V79.4286H1296.66V70.176H1295.98ZM1295.98 88.6812V97.9338H1296.66V88.6812H1295.98ZM1295.98 107.186V116.439H1296.66V107.186H1295.98ZM1295.98 125.692V130.318H1296.66V125.692H1295.98ZM1296.32 130.655H1300.94V129.981H1296.32V130.655ZM1310.2 130.655H1319.45V129.981H1310.2V130.655ZM1328.7 130.655H1337.95V129.981H1328.7V130.655ZM1347.21 130.655H1356.46V129.981H1347.21V130.655ZM1365.71 130.655H1374.96V129.981H1365.71V130.655ZM1384.22 130.655H1393.47V129.981H1384.22V130.655ZM1402.72 130.655H1411.98V129.981H1402.72V130.655ZM1421.23 130.655H1425.85V129.981H1421.23V130.655ZM1425.85 130.318V130.993H1426.53V130.318H1425.85ZM1296.32 130.318H1295.64V130.993H1296.32V130.318ZM1426.53 130.318V125.692H1425.18V130.318H1426.53ZM1426.53 116.439V107.186H1425.18V116.439H1426.53ZM1426.53 97.9338V88.6812H1425.18V97.9338H1426.53ZM1426.53 79.4286V70.176H1425.18V79.4286H1426.53ZM1426.53 60.9234V51.6708H1425.18V60.9234H1426.53ZM1426.53 42.4182V33.1656H1425.18V42.4182H1426.53ZM1426.53 23.9129V14.6603H1425.18V23.9129H1426.53ZM1426.53 5.40775V0.781448H1425.18V5.40775H1426.53ZM1295.64 0.781448V5.40775H1296.99V0.781448H1295.64ZM1295.64 14.6604V23.913H1296.99V14.6604H1295.64ZM1295.64 33.1656V42.4182H1296.99V33.1656H1295.64ZM1295.64 51.6708V60.9234H1296.99V51.6708H1295.64ZM1295.64 70.176V79.4286H1296.99V70.176H1295.64ZM1295.64 88.6812V97.9338H1296.99V88.6812H1295.64ZM1295.64 107.186V116.439H1296.99V107.186H1295.64ZM1295.64 125.692V130.318H1296.99V125.692H1295.64ZM1296.32 130.993H1300.94V129.643H1296.32V130.993ZM1310.2 130.993H1319.45V129.643H1310.2V130.993ZM1328.7 130.993H1337.95V129.643H1328.7V130.993ZM1347.21 130.993H1356.46V129.643H1347.21V130.993ZM1365.71 130.993H1374.96V129.643H1365.71V130.993ZM1384.22 130.993H1393.47V129.643H1384.22V130.993ZM1402.72 130.993H1411.98V129.643H1402.72V130.993ZM1421.23 130.993H1425.85V129.643H1421.23V130.993Z" fill="white" fill-opacity="0.15" mask="url(#path-33-inside-5_1099_6147)"/>
<rect x="1295.98" y="777.663" width="128.862" height="128.862" transform="rotate(180 1295.98 777.663)" stroke="white" stroke-opacity="0.15" stroke-width="0.674669" stroke-dasharray="9.45 9.45"/>
<rect x="1295.98" y="648.126" width="128.862" height="128.862" transform="rotate(180 1295.98 648.126)" stroke="white" stroke-opacity="0.15" stroke-width="0.674669" stroke-dasharray="9.45 9.45"/>
<rect x="1295.98" y="518.59" width="128.862" height="128.862" transform="rotate(180 1295.98 518.59)" stroke="white" stroke-opacity="0.15" stroke-width="0.674669" stroke-dasharray="9.45 9.45"/>
<rect x="1295.98" y="389.053" width="128.862" height="128.862" transform="rotate(180 1295.98 389.053)" stroke="white" stroke-opacity="0.15" stroke-width="0.674669" stroke-dasharray="9.45 9.45"/>
<rect x="1295.98" y="259.517" width="128.862" height="128.862" transform="rotate(180 1295.98 259.517)" stroke="white" stroke-opacity="0.15" stroke-width="0.674669" stroke-dasharray="9.45 9.45"/>
<mask id="path-40-inside-6_1099_6147" fill="white">
<path d="M1296.32 130.318H1166.78V0.781448H1296.32V130.318Z"/>
</mask>
<path d="M1296.32 130.318V130.655H1296.66V130.318H1296.32ZM1166.78 130.318H1166.44V130.655H1166.78V130.318ZM1296.66 130.318V125.692H1295.98V130.318H1296.66ZM1296.66 116.439V107.186H1295.98V116.439H1296.66ZM1296.66 97.9338V88.6812H1295.98V97.9338H1296.66ZM1296.66 79.4286V70.176H1295.98V79.4286H1296.66ZM1296.66 60.9234V51.6708H1295.98V60.9234H1296.66ZM1296.66 42.4182V33.1656H1295.98V42.4182H1296.66ZM1296.66 23.9129V14.6603H1295.98V23.9129H1296.66ZM1296.66 5.40775V0.781448H1295.98V5.40775H1296.66ZM1166.44 0.781448V5.40775H1167.12V0.781448H1166.44ZM1166.44 14.6604V23.913H1167.12V14.6604H1166.44ZM1166.44 33.1656V42.4182H1167.12V33.1656H1166.44ZM1166.44 51.6708V60.9234H1167.12V51.6708H1166.44ZM1166.44 70.176V79.4286H1167.12V70.176H1166.44ZM1166.44 88.6812V97.9338H1167.12V88.6812H1166.44ZM1166.44 107.186V116.439H1167.12V107.186H1166.44ZM1166.44 125.692V130.318H1167.12V125.692H1166.44ZM1166.78 130.655H1171.41V129.981H1166.78V130.655ZM1180.66 130.655H1189.91V129.981H1180.66V130.655ZM1199.17 130.655H1208.42V129.981H1199.17V130.655ZM1217.67 130.655H1226.92V129.981H1217.67V130.655ZM1236.18 130.655H1245.43V129.981H1236.18V130.655ZM1254.68 130.655H1263.93V129.981H1254.68V130.655ZM1273.19 130.655H1282.44V129.981H1273.19V130.655ZM1291.69 130.655H1296.32V129.981H1291.69V130.655ZM1296.32 130.318V130.993H1296.99V130.318H1296.32ZM1166.78 130.318H1166.11V130.993H1166.78V130.318ZM1296.99 130.318V125.692H1295.64V130.318H1296.99ZM1296.99 116.439V107.186H1295.64V116.439H1296.99ZM1296.99 97.9338V88.6812H1295.64V97.9338H1296.99ZM1296.99 79.4286V70.176H1295.64V79.4286H1296.99ZM1296.99 60.9234V51.6708H1295.64V60.9234H1296.99ZM1296.99 42.4182V33.1656H1295.64V42.4182H1296.99ZM1296.99 23.9129V14.6603H1295.64V23.9129H1296.99ZM1296.99 5.40775V0.781448H1295.64V5.40775H1296.99ZM1166.11 0.781448V5.40775H1167.46V0.781448H1166.11ZM1166.11 14.6604V23.913H1167.46V14.6604H1166.11ZM1166.11 33.1656V42.4182H1167.46V33.1656H1166.11ZM1166.11 51.6708V60.9234H1167.46V51.6708H1166.11ZM1166.11 70.176V79.4286H1167.46V70.176H1166.11ZM1166.11 88.6812V97.9338H1167.46V88.6812H1166.11ZM1166.11 107.186V116.439H1167.46V107.186H1166.11ZM1166.11 125.692V130.318H1167.46V125.692H1166.11ZM1166.78 130.993H1171.41V129.643H1166.78V130.993ZM1180.66 130.993H1189.91V129.643H1180.66V130.993ZM1199.17 130.993H1208.42V129.643H1199.17V130.993ZM1217.67 130.993H1226.92V129.643H1217.67V130.993ZM1236.18 130.993H1245.43V129.643H1236.18V130.993ZM1254.68 130.993H1263.93V129.643H1254.68V130.993ZM1273.19 130.993H1282.44V129.643H1273.19V130.993ZM1291.69 130.993H1296.32V129.643H1291.69V130.993Z" fill="white" fill-opacity="0.15" mask="url(#path-40-inside-6_1099_6147)"/>
<rect x="1166.44" y="777.663" width="128.862" height="128.862" transform="rotate(180 1166.44 777.663)" stroke="white" stroke-opacity="0.15" stroke-width="0.674669" stroke-dasharray="9.45 9.45"/>
<rect x="1166.44" y="648.126" width="128.862" height="128.862" transform="rotate(180 1166.44 648.126)" stroke="white" stroke-opacity="0.15" stroke-width="0.674669" stroke-dasharray="9.45 9.45"/>
<rect x="1166.44" y="518.59" width="128.862" height="128.862" transform="rotate(180 1166.44 518.59)" stroke="white" stroke-opacity="0.15" stroke-width="0.674669" stroke-dasharray="9.45 9.45"/>
<rect x="1166.44" y="389.053" width="128.862" height="128.862" transform="rotate(180 1166.44 389.053)" stroke="white" stroke-opacity="0.15" stroke-width="0.674669" stroke-dasharray="9.45 9.45"/>
<rect x="1166.44" y="259.517" width="128.862" height="128.862" transform="rotate(180 1166.44 259.517)" stroke="white" stroke-opacity="0.15" stroke-width="0.674669" stroke-dasharray="9.45 9.45"/>
<mask id="path-47-inside-7_1099_6147" fill="white">
<path d="M1166.78 130.318H1037.24V0.781448H1166.78V130.318Z"/>
</mask>
<path d="M1166.78 130.318V130.655H1167.12V130.318H1166.78ZM1037.24 130.318H1036.91V130.655H1037.24V130.318ZM1167.12 130.318V125.692H1166.44V130.318H1167.12ZM1167.12 116.439V107.186H1166.44V116.439H1167.12ZM1167.12 97.9338V88.6812H1166.44V97.9338H1167.12ZM1167.12 79.4286V70.176H1166.44V79.4286H1167.12ZM1167.12 60.9234V51.6708H1166.44V60.9234H1167.12ZM1167.12 42.4182V33.1656H1166.44V42.4182H1167.12ZM1167.12 23.9129V14.6603H1166.44V23.9129H1167.12ZM1167.12 5.40775V0.781448H1166.44V5.40775H1167.12ZM1036.91 0.781448V5.40775H1037.58V0.781448H1036.91ZM1036.91 14.6604V23.913H1037.58V14.6604H1036.91ZM1036.91 33.1656V42.4182H1037.58V33.1656H1036.91ZM1036.91 51.6708V60.9234H1037.58V51.6708H1036.91ZM1036.91 70.176V79.4286H1037.58V70.176H1036.91ZM1036.91 88.6812V97.9338H1037.58V88.6812H1036.91ZM1036.91 107.186V116.439H1037.58V107.186H1036.91ZM1036.91 125.692V130.318H1037.58V125.692H1036.91ZM1037.24 130.655H1041.87V129.981H1037.24V130.655ZM1051.12 130.655H1060.38V129.981H1051.12V130.655ZM1069.63 130.655H1078.88V129.981H1069.63V130.655ZM1088.13 130.655H1097.39V129.981H1088.13V130.655ZM1106.64 130.655H1115.89V129.981H1106.64V130.655ZM1125.14 130.655H1134.4V129.981H1125.14V130.655ZM1143.65 130.655H1152.9V129.981H1143.65V130.655ZM1162.16 130.655H1166.78V129.981H1162.16V130.655ZM1166.78 130.318V130.993H1167.46V130.318H1166.78ZM1037.24 130.318H1036.57V130.993H1037.24V130.318ZM1167.46 130.318V125.692H1166.11V130.318H1167.46ZM1167.46 116.439V107.186H1166.11V116.439H1167.46ZM1167.46 97.9338V88.6812H1166.11V97.9338H1167.46ZM1167.46 79.4286V70.176H1166.11V79.4286H1167.46ZM1167.46 60.9234V51.6708H1166.11V60.9234H1167.46ZM1167.46 42.4182V33.1656H1166.11V42.4182H1167.46ZM1167.46 23.9129V14.6603H1166.11V23.9129H1167.46ZM1167.46 5.40775V0.781448H1166.11V5.40775H1167.46ZM1036.57 0.781448V5.40775H1037.92V0.781448H1036.57ZM1036.57 14.6604V23.913H1037.92V14.6604H1036.57ZM1036.57 33.1656V42.4182H1037.92V33.1656H1036.57ZM1036.57 51.6708V60.9234H1037.92V51.6708H1036.57ZM1036.57 70.176V79.4286H1037.92V70.176H1036.57ZM1036.57 88.6812V97.9338H1037.92V88.6812H1036.57ZM1036.57 107.186V116.439H1037.92V107.186H1036.57ZM1036.57 125.692V130.318H1037.92V125.692H1036.57ZM1037.24 130.993H1041.87V129.643H1037.24V130.993ZM1051.12 130.993H1060.38V129.643H1051.12V130.993ZM1069.63 130.993H1078.88V129.643H1069.63V130.993ZM1088.13 130.993H1097.39V129.643H1088.13V130.993ZM1106.64 130.993H1115.89V129.643H1106.64V130.993ZM1125.14 130.993H1134.4V129.643H1125.14V130.993ZM1143.65 130.993H1152.9V129.643H1143.65V130.993ZM1162.16 130.993H1166.78V129.643H1162.16V130.993Z" fill="white" fill-opacity="0.15" mask="url(#path-47-inside-7_1099_6147)"/>
<rect x="1036.91" y="777.663" width="128.862" height="128.862" transform="rotate(180 1036.91 777.663)" stroke="white" stroke-opacity="0.15" stroke-width="0.674669" stroke-dasharray="9.45 9.45"/>
<rect x="1036.91" y="648.126" width="128.862" height="128.862" transform="rotate(180 1036.91 648.126)" stroke="white" stroke-opacity="0.15" stroke-width="0.674669" stroke-dasharray="9.45 9.45"/>
<rect x="1036.91" y="518.59" width="128.862" height="128.862" transform="rotate(180 1036.91 518.59)" stroke="white" stroke-opacity="0.15" stroke-width="0.674669" stroke-dasharray="9.45 9.45"/>
<rect x="1036.91" y="389.053" width="128.862" height="128.862" transform="rotate(180 1036.91 389.053)" stroke="white" stroke-opacity="0.15" stroke-width="0.674669" stroke-dasharray="9.45 9.45"/>
<rect x="1036.91" y="259.517" width="128.862" height="128.862" transform="rotate(180 1036.91 259.517)" stroke="white" stroke-opacity="0.15" stroke-width="0.674669" stroke-dasharray="9.45 9.45"/>
<mask id="path-54-inside-8_1099_6147" fill="white">
<path d="M1037.24 130.318H907.709V0.781448H1037.24V130.318Z"/>
</mask>
<path d="M1037.24 130.318V130.655H1037.58V130.318H1037.24ZM907.709 130.318H907.371V130.655H907.709V130.318ZM1037.58 130.318V125.692H1036.91V130.318H1037.58ZM1037.58 116.439V107.186H1036.91V116.439H1037.58ZM1037.58 97.9338V88.6812H1036.91V97.9338H1037.58ZM1037.58 79.4286V70.176H1036.91V79.4286H1037.58ZM1037.58 60.9234V51.6708H1036.91V60.9234H1037.58ZM1037.58 42.4182V33.1656H1036.91V42.4182H1037.58ZM1037.58 23.9129V14.6603H1036.91V23.9129H1037.58ZM1037.58 5.40775V0.781448H1036.91V5.40775H1037.58ZM907.371 0.781448V5.40775H908.046V0.781448H907.371ZM907.371 14.6604V23.913H908.046V14.6604H907.371ZM907.371 33.1656V42.4182H908.046V33.1656H907.371ZM907.371 51.6708V60.9234H908.046V51.6708H907.371ZM907.371 70.176V79.4286H908.046V70.176H907.371ZM907.371 88.6812V97.9338H908.046V88.6812H907.371ZM907.371 107.186V116.439H908.046V107.186H907.371ZM907.371 125.692V130.318H908.046V125.692H907.371ZM907.709 130.655H912.335V129.981H907.709V130.655ZM921.587 130.655H930.84V129.981H921.587V130.655ZM940.093 130.655H949.345V129.981H940.093V130.655ZM958.598 130.655H967.85V129.981H958.598V130.655ZM977.103 130.655H986.356V129.981H977.103V130.655ZM995.608 130.655H1004.86V129.981H995.608V130.655ZM1014.11 130.655H1023.37V129.981H1014.11V130.655ZM1032.62 130.655H1037.24V129.981H1032.62V130.655ZM1037.24 130.318V130.993H1037.92V130.318H1037.24ZM907.709 130.318H907.034V130.993H907.709V130.318ZM1037.92 130.318V125.692H1036.57V130.318H1037.92ZM1037.92 116.439V107.186H1036.57V116.439H1037.92ZM1037.92 97.9338V88.6812H1036.57V97.9338H1037.92ZM1037.92 79.4286V70.176H1036.57V79.4286H1037.92ZM1037.92 60.9234V51.6708H1036.57V60.9234H1037.92ZM1037.92 42.4182V33.1656H1036.57V42.4182H1037.92ZM1037.92 23.9129V14.6603H1036.57V23.9129H1037.92ZM1037.92 5.40775V0.781448H1036.57V5.40775H1037.92ZM907.034 0.781448V5.40775H908.383V0.781448H907.034ZM907.034 14.6604V23.913H908.383V14.6604H907.034ZM907.034 33.1656V42.4182H908.383V33.1656H907.034ZM907.034 51.6708V60.9234H908.383V51.6708H907.034ZM907.034 70.176V79.4286H908.383V70.176H907.034ZM907.034 88.6812V97.9338H908.383V88.6812H907.034ZM907.034 107.186V116.439H908.383V107.186H907.034ZM907.034 125.692V130.318H908.383V125.692H907.034ZM907.709 130.993H912.335V129.643H907.709V130.993ZM921.587 130.993H930.84V129.643H921.587V130.993ZM940.093 130.993H949.345V129.643H940.093V130.993ZM958.598 130.993H967.85V129.643H958.598V130.993ZM977.103 130.993H986.356V129.643H977.103V130.993ZM995.608 130.993H1004.86V129.643H995.608V130.993ZM1014.11 130.993H1023.37V129.643H1014.11V130.993ZM1032.62 130.993H1037.24V129.643H1032.62V130.993Z" fill="white" fill-opacity="0.15" mask="url(#path-54-inside-8_1099_6147)"/>
<rect x="907.371" y="777.663" width="128.862" height="128.862" transform="rotate(180 907.371 777.663)" stroke="white" stroke-opacity="0.15" stroke-width="0.674669" stroke-dasharray="9.45 9.45"/>
<rect x="907.371" y="648.126" width="128.862" height="128.862" transform="rotate(180 907.371 648.126)" stroke="white" stroke-opacity="0.15" stroke-width="0.674669" stroke-dasharray="9.45 9.45"/>
<rect x="907.371" y="518.59" width="128.862" height="128.862" transform="rotate(180 907.371 518.59)" stroke="white" stroke-opacity="0.15" stroke-width="0.674669" stroke-dasharray="9.45 9.45"/>
<rect x="907.371" y="389.053" width="128.862" height="128.862" transform="rotate(180 907.371 389.053)" stroke="white" stroke-opacity="0.15" stroke-width="0.674669" stroke-dasharray="9.45 9.45"/>
<rect x="907.371" y="259.517" width="128.862" height="128.862" transform="rotate(180 907.371 259.517)" stroke="white" stroke-opacity="0.15" stroke-width="0.674669" stroke-dasharray="9.45 9.45"/>
<mask id="path-61-inside-9_1099_6147" fill="white">
<path d="M907.708 130.318H778.172V0.781448H907.708V130.318Z"/>
</mask>
<path d="M907.708 130.318V130.655H908.046V130.318H907.708ZM778.172 130.318H777.835V130.655H778.172V130.318ZM908.046 130.318V125.692H907.371V130.318H908.046ZM908.046 116.439V107.186H907.371V116.439H908.046ZM908.046 97.9338V88.6812H907.371V97.9338H908.046ZM908.046 79.4286V70.176H907.371V79.4286H908.046ZM908.046 60.9234V51.6708H907.371V60.9234H908.046ZM908.046 42.4182V33.1656H907.371V42.4182H908.046ZM908.046 23.9129V14.6603H907.371V23.9129H908.046ZM908.046 5.40775V0.781448H907.371V5.40775H908.046ZM777.835 0.781448V5.40775H778.509V0.781448H777.835ZM777.835 14.6604V23.913H778.509V14.6604H777.835ZM777.835 33.1656V42.4182H778.509V33.1656H777.835ZM777.835 51.6708V60.9234H778.509V51.6708H777.835ZM777.835 70.176V79.4286H778.509V70.176H777.835ZM777.835 88.6812V97.9338H778.509V88.6812H777.835ZM777.835 107.186V116.439H778.509V107.186H777.835ZM777.835 125.692V130.318H778.509V125.692H777.835ZM778.172 130.655H782.798V129.981H778.172V130.655ZM792.051 130.655H801.304V129.981H792.051V130.655ZM810.556 130.655H819.809V129.981H810.556V130.655ZM829.061 130.655H838.314V129.981H829.061V130.655ZM847.567 130.655H856.819V129.981H847.567V130.655ZM866.072 130.655H875.324V129.981H866.072V130.655ZM884.577 130.655H893.83V129.981H884.577V130.655ZM903.082 130.655H907.708V129.981H903.082V130.655ZM907.708 130.318V130.993H908.383V130.318H907.708ZM778.172 130.318H777.497V130.993H778.172V130.318ZM908.383 130.318V125.692H907.034V130.318H908.383ZM908.383 116.439V107.186H907.034V116.439H908.383ZM908.383 97.9338V88.6812H907.034V97.9338H908.383ZM908.383 79.4286V70.176H907.034V79.4286H908.383ZM908.383 60.9234V51.6708H907.034V60.9234H908.383ZM908.383 42.4182V33.1656H907.034V42.4182H908.383ZM908.383 23.9129V14.6603H907.034V23.9129H908.383ZM908.383 5.40775V0.781448H907.034V5.40775H908.383ZM777.497 0.781448V5.40775H778.847V0.781448H777.497ZM777.497 14.6604V23.913H778.847V14.6604H777.497ZM777.497 33.1656V42.4182H778.847V33.1656H777.497ZM777.497 51.6708V60.9234H778.847V51.6708H777.497ZM777.497 70.176V79.4286H778.847V70.176H777.497ZM777.497 88.6812V97.9338H778.847V88.6812H777.497ZM777.497 107.186V116.439H778.847V107.186H777.497ZM777.497 125.692V130.318H778.847V125.692H777.497ZM778.172 130.993H782.798V129.643H778.172V130.993ZM792.051 130.993H801.304V129.643H792.051V130.993ZM810.556 130.993H819.809V129.643H810.556V130.993ZM829.061 130.993H838.314V129.643H829.061V130.993ZM847.567 130.993H856.819V129.643H847.567V130.993ZM866.072 130.993H875.324V129.643H866.072V130.993ZM884.577 130.993H893.83V129.643H884.577V130.993ZM903.082 130.993H907.708V129.643H903.082V130.993Z" fill="white" fill-opacity="0.15" mask="url(#path-61-inside-9_1099_6147)"/>
<rect x="777.835" y="777.663" width="128.862" height="128.862" transform="rotate(180 777.835 777.663)" stroke="white" stroke-opacity="0.15" stroke-width="0.674669" stroke-dasharray="9.45 9.45"/>
<rect x="777.835" y="648.126" width="128.862" height="128.862" transform="rotate(180 777.835 648.126)" stroke="white" stroke-opacity="0.15" stroke-width="0.674669" stroke-dasharray="9.45 9.45"/>
<rect x="777.835" y="518.59" width="128.862" height="128.862" transform="rotate(180 777.835 518.59)" stroke="white" stroke-opacity="0.15" stroke-width="0.674669" stroke-dasharray="9.45 9.45"/>
<rect x="777.835" y="389.053" width="128.862" height="128.862" transform="rotate(180 777.835 389.053)" stroke="white" stroke-opacity="0.15" stroke-width="0.674669" stroke-dasharray="9.45 9.45"/>
<rect x="777.835" y="259.517" width="128.862" height="128.862" transform="rotate(180 777.835 259.517)" stroke="white" stroke-opacity="0.15" stroke-width="0.674669" stroke-dasharray="9.45 9.45"/>
<mask id="path-68-inside-10_1099_6147" fill="white">
<path d="M778.172 130.318H648.636V0.781448H778.172V130.318Z"/>
</mask>
<path d="M778.172 130.318V130.655H778.509V130.318H778.172ZM648.636 130.318H648.298V130.655H648.636V130.318ZM778.509 130.318V125.692H777.835V130.318H778.509ZM778.509 116.439V107.186H777.835V116.439H778.509ZM778.509 97.9338V88.6812H777.835V97.9338H778.509ZM778.509 79.4286V70.176H777.835V79.4286H778.509ZM778.509 60.9234V51.6708H777.835V60.9234H778.509ZM778.509 42.4182V33.1656H777.835V42.4182H778.509ZM778.509 23.9129V14.6603H777.835V23.9129H778.509ZM778.509 5.40775V0.781448H777.835V5.40775H778.509ZM648.298 0.781448V5.40775H648.973V0.781448H648.298ZM648.298 14.6604V23.913H648.973V14.6604H648.298ZM648.298 33.1656V42.4182H648.973V33.1656H648.298ZM648.298 51.6708V60.9234H648.973V51.6708H648.298ZM648.298 70.176V79.4286H648.973V70.176H648.298ZM648.298 88.6812V97.9338H648.973V88.6812H648.298ZM648.298 107.186V116.439H648.973V107.186H648.298ZM648.298 125.692V130.318H648.973V125.692H648.298ZM648.636 130.655H653.262V129.981H648.636V130.655ZM662.515 130.655H671.767V129.981H662.515V130.655ZM681.02 130.655H690.272V129.981H681.02V130.655ZM699.525 130.655H708.778V129.981H699.525V130.655ZM718.03 130.655H727.283V129.981H718.03V130.655ZM736.535 130.655H745.788V129.981H736.535V130.655ZM755.041 130.655H764.293V129.981H755.041V130.655ZM773.546 130.655H778.172V129.981H773.546V130.655ZM778.172 130.318V130.993H778.847V130.318H778.172ZM648.636 130.318H647.961V130.993H648.636V130.318ZM778.847 130.318V125.692H777.497V130.318H778.847ZM778.847 116.439V107.186H777.497V116.439H778.847ZM778.847 97.9338V88.6812H777.497V97.9338H778.847ZM778.847 79.4286V70.176H777.497V79.4286H778.847ZM778.847 60.9234V51.6708H777.497V60.9234H778.847ZM778.847 42.4182V33.1656H777.497V42.4182H778.847ZM778.847 23.9129V14.6603H777.497V23.9129H778.847ZM778.847 5.40775V0.781448H777.497V5.40775H778.847ZM647.961 0.781448V5.40775H649.31V0.781448H647.961ZM647.961 14.6604V23.913H649.31V14.6604H647.961ZM647.961 33.1656V42.4182H649.31V33.1656H647.961ZM647.961 51.6708V60.9234H649.31V51.6708H647.961ZM647.961 70.176V79.4286H649.31V70.176H647.961ZM647.961 88.6812V97.9338H649.31V88.6812H647.961ZM647.961 107.186V116.439H649.31V107.186H647.961ZM647.961 125.692V130.318H649.31V125.692H647.961ZM648.636 130.993H653.262V129.643H648.636V130.993ZM662.515 130.993H671.767V129.643H662.515V130.993ZM681.02 130.993H690.272V129.643H681.02V130.993ZM699.525 130.993H708.778V129.643H699.525V130.993ZM718.03 130.993H727.283V129.643H718.03V130.993ZM736.535 130.993H745.788V129.643H736.535V130.993ZM755.041 130.993H764.293V129.643H755.041V130.993ZM773.546 130.993H778.172V129.643H773.546V130.993Z" fill="white" fill-opacity="0.15" mask="url(#path-68-inside-10_1099_6147)"/>
<rect x="648.298" y="777.663" width="128.862" height="128.862" transform="rotate(180 648.298 777.663)" stroke="white" stroke-opacity="0.15" stroke-width="0.674669" stroke-dasharray="9.45 9.45"/>
<rect x="648.298" y="648.126" width="128.862" height="128.862" transform="rotate(180 648.298 648.126)" stroke="white" stroke-opacity="0.15" stroke-width="0.674669" stroke-dasharray="9.45 9.45"/>
<rect x="648.298" y="518.59" width="128.862" height="128.862" transform="rotate(180 648.298 518.59)" stroke="white" stroke-opacity="0.15" stroke-width="0.674669" stroke-dasharray="9.45 9.45"/>
<rect x="648.298" y="389.053" width="128.862" height="128.862" transform="rotate(180 648.298 389.053)" stroke="white" stroke-opacity="0.15" stroke-width="0.674669" stroke-dasharray="9.45 9.45"/>
<rect x="648.298" y="259.517" width="128.862" height="128.862" transform="rotate(180 648.298 259.517)" stroke="white" stroke-opacity="0.15" stroke-width="0.674669" stroke-dasharray="9.45 9.45"/>
<mask id="path-75-inside-11_1099_6147" fill="white">
<path d="M648.636 130.318H519.099V0.781448H648.636V130.318Z"/>
</mask>
<path d="M648.636 130.318V130.655H648.973V130.318H648.636ZM519.099 130.318H518.762V130.655H519.099V130.318ZM648.973 130.318V125.692H648.298V130.318H648.973ZM648.973 116.439V107.186H648.298V116.439H648.973ZM648.973 97.9338V88.6812H648.298V97.9338H648.973ZM648.973 79.4286V70.176H648.298V79.4286H648.973ZM648.973 60.9234V51.6708H648.298V60.9234H648.973ZM648.973 42.4182V33.1656H648.298V42.4182H648.973ZM648.973 23.9129V14.6603H648.298V23.9129H648.973ZM648.973 5.40775V0.781448H648.298V5.40775H648.973ZM518.762 0.781448V5.40775H519.437V0.781448H518.762ZM518.762 14.6604V23.913H519.437V14.6604H518.762ZM518.762 33.1656V42.4182H519.437V33.1656H518.762ZM518.762 51.6708V60.9234H519.437V51.6708H518.762ZM518.762 70.176V79.4286H519.437V70.176H518.762ZM518.762 88.6812V97.9338H519.437V88.6812H518.762ZM518.762 107.186V116.439H519.437V107.186H518.762ZM518.762 125.692V130.318H519.437V125.692H518.762ZM519.099 130.655H523.725V129.981H519.099V130.655ZM532.978 130.655H542.231V129.981H532.978V130.655ZM551.483 130.655H560.736V129.981H551.483V130.655ZM569.989 130.655H579.241V129.981H569.989V130.655ZM588.494 130.655H597.746V129.981H588.494V130.655ZM606.999 130.655H616.252V129.981H606.999V130.655ZM625.504 130.655H634.757V129.981H625.504V130.655ZM644.009 130.655H648.636V129.981H644.009V130.655ZM648.636 130.318V130.993H649.31V130.318H648.636ZM519.099 130.318H518.425V130.993H519.099V130.318ZM649.31 130.318V125.692H647.961V130.318H649.31ZM649.31 116.439V107.186H647.961V116.439H649.31ZM649.31 97.9338V88.6812H647.961V97.9338H649.31ZM649.31 79.4286V70.176H647.961V79.4286H649.31ZM649.31 60.9234V51.6708H647.961V60.9234H649.31ZM649.31 42.4182V33.1656H647.961V42.4182H649.31ZM649.31 23.9129V14.6603H647.961V23.9129H649.31ZM649.31 5.40775V0.781448H647.961V5.40775H649.31ZM518.425 0.781448V5.40775H519.774V0.781448H518.425ZM518.425 14.6604V23.913H519.774V14.6604H518.425ZM518.425 33.1656V42.4182H519.774V33.1656H518.425ZM518.425 51.6708V60.9234H519.774V51.6708H518.425ZM518.425 70.176V79.4286H519.774V70.176H518.425ZM518.425 88.6812V97.9338H519.774V88.6812H518.425ZM518.425 107.186V116.439H519.774V107.186H518.425ZM518.425 125.692V130.318H519.774V125.692H518.425ZM519.099 130.993H523.725V129.643H519.099V130.993ZM532.978 130.993H542.231V129.643H532.978V130.993ZM551.483 130.993H560.736V129.643H551.483V130.993ZM569.989 130.993H579.241V129.643H569.989V130.993ZM588.494 130.993H597.746V129.643H588.494V130.993ZM606.999 130.993H616.252V129.643H606.999V130.993ZM625.504 130.993H634.757V129.643H625.504V130.993ZM644.009 130.993H648.636V129.643H644.009V130.993Z" fill="white" fill-opacity="0.15" mask="url(#path-75-inside-11_1099_6147)"/>
<rect x="518.762" y="777.663" width="128.862" height="128.862" transform="rotate(180 518.762 777.663)" stroke="white" stroke-opacity="0.15" stroke-width="0.674669" stroke-dasharray="9.45 9.45"/>
<rect x="518.762" y="648.126" width="128.862" height="128.862" transform="rotate(180 518.762 648.126)" stroke="white" stroke-opacity="0.15" stroke-width="0.674669" stroke-dasharray="9.45 9.45"/>
<rect x="518.762" y="518.59" width="128.862" height="128.862" transform="rotate(180 518.762 518.59)" stroke="white" stroke-opacity="0.15" stroke-width="0.674669" stroke-dasharray="9.45 9.45"/>
<rect x="518.762" y="389.053" width="128.862" height="128.862" transform="rotate(180 518.762 389.053)" stroke="white" stroke-opacity="0.15" stroke-width="0.674669" stroke-dasharray="9.45 9.45"/>
<rect x="518.762" y="259.517" width="128.862" height="128.862" transform="rotate(180 518.762 259.517)" stroke="white" stroke-opacity="0.15" stroke-width="0.674669" stroke-dasharray="9.45 9.45"/>
<mask id="path-82-inside-12_1099_6147" fill="white">
<path d="M519.099 130.318H389.563V0.781448H519.099V130.318Z"/>
</mask>
<path d="M519.099 130.318V130.655H519.437V130.318H519.099ZM389.563 130.318H389.225V130.655H389.563V130.318ZM519.437 130.318V125.692H518.762V130.318H519.437ZM519.437 116.439V107.186H518.762V116.439H519.437ZM519.437 97.9338V88.6812H518.762V97.9338H519.437ZM519.437 79.4286V70.176H518.762V79.4286H519.437ZM519.437 60.9234V51.6708H518.762V60.9234H519.437ZM519.437 42.4182V33.1656H518.762V42.4182H519.437ZM519.437 23.9129V14.6603H518.762V23.9129H519.437ZM519.437 5.40775V0.781448H518.762V5.40775H519.437ZM389.225 0.781448V5.40775H389.9V0.781448H389.225ZM389.225 14.6604V23.913H389.9V14.6604H389.225ZM389.225 33.1656V42.4182H389.9V33.1656H389.225ZM389.225 51.6708V60.9234H389.9V51.6708H389.225ZM389.225 70.176V79.4286H389.9V70.176H389.225ZM389.225 88.6812V97.9338H389.9V88.6812H389.225ZM389.225 107.186V116.439H389.9V107.186H389.225ZM389.225 125.692V130.318H389.9V125.692H389.225ZM389.563 130.655H394.189V129.981H389.563V130.655ZM403.442 130.655H412.694V129.981H403.442V130.655ZM421.947 130.655H431.2V129.981H421.947V130.655ZM440.452 130.655H449.705V129.981H440.452V130.655ZM458.957 130.655H468.21V129.981H458.957V130.655ZM477.463 130.655H486.715V129.981H477.463V130.655ZM495.968 130.655H505.22V129.981H495.968V130.655ZM514.473 130.655H519.099V129.981H514.473V130.655ZM519.099 130.318V130.993H519.774V130.318H519.099ZM389.563 130.318H388.888V130.993H389.563V130.318ZM519.774 130.318V125.692H518.425V130.318H519.774ZM519.774 116.439V107.186H518.425V116.439H519.774ZM519.774 97.9338V88.6812H518.425V97.9338H519.774ZM519.774 79.4286V70.176H518.425V79.4286H519.774ZM519.774 60.9234V51.6708H518.425V60.9234H519.774ZM519.774 42.4182V33.1656H518.425V42.4182H519.774ZM519.774 23.9129V14.6603H518.425V23.9129H519.774ZM519.774 5.40775V0.781448H518.425V5.40775H519.774ZM388.888 0.781448V5.40775H390.237V0.781448H388.888ZM388.888 14.6604V23.913H390.237V14.6604H388.888ZM388.888 33.1656V42.4182H390.237V33.1656H388.888ZM388.888 51.6708V60.9234H390.237V51.6708H388.888ZM388.888 70.176V79.4286H390.237V70.176H388.888ZM388.888 88.6812V97.9338H390.237V88.6812H388.888ZM388.888 107.186V116.439H390.237V107.186H388.888ZM388.888 125.692V130.318H390.237V125.692H388.888ZM389.563 130.993H394.189V129.643H389.563V130.993ZM403.442 130.993H412.694V129.643H403.442V130.993ZM421.947 130.993H431.2V129.643H421.947V130.993ZM440.452 130.993H449.705V129.643H440.452V130.993ZM458.957 130.993H468.21V129.643H458.957V130.993ZM477.463 130.993H486.715V129.643H477.463V130.993ZM495.968 130.993H505.22V129.643H495.968V130.993ZM514.473 130.993H519.099V129.643H514.473V130.993Z" fill="white" fill-opacity="0.15" mask="url(#path-82-inside-12_1099_6147)"/>
<rect x="389.226" y="777.663" width="128.862" height="128.862" transform="rotate(180 389.226 777.663)" stroke="white" stroke-opacity="0.15" stroke-width="0.674669" stroke-dasharray="9.45 9.45"/>
<rect x="389.226" y="648.126" width="128.862" height="128.862" transform="rotate(180 389.226 648.126)" stroke="white" stroke-opacity="0.15" stroke-width="0.674669" stroke-dasharray="9.45 9.45"/>
<rect x="389.226" y="518.59" width="128.862" height="128.862" transform="rotate(180 389.226 518.59)" stroke="white" stroke-opacity="0.15" stroke-width="0.674669" stroke-dasharray="9.45 9.45"/>
<rect x="389.226" y="389.053" width="128.862" height="128.862" transform="rotate(180 389.226 389.053)" stroke="white" stroke-opacity="0.15" stroke-width="0.674669" stroke-dasharray="9.45 9.45"/>
<rect x="389.226" y="259.517" width="128.862" height="128.862" transform="rotate(180 389.226 259.517)" stroke="white" stroke-opacity="0.15" stroke-width="0.674669" stroke-dasharray="9.45 9.45"/>
<mask id="path-89-inside-13_1099_6147" fill="white">
<path d="M389.563 130.318H260.026V0.781448H389.563V130.318Z"/>
</mask>
<path d="M389.563 130.318V130.655H389.9V130.318H389.563ZM260.026 130.318H259.689V130.655H260.026V130.318ZM389.9 130.318V125.692H389.226V130.318H389.9ZM389.9 116.439V107.186H389.226V116.439H389.9ZM389.9 97.9338V88.6812H389.226V97.9338H389.9ZM389.9 79.4286V70.176H389.226V79.4286H389.9ZM389.9 60.9234V51.6708H389.226V60.9234H389.9ZM389.9 42.4182V33.1656H389.226V42.4182H389.9ZM389.9 23.9129V14.6603H389.226V23.9129H389.9ZM389.9 5.40775V0.781448H389.226V5.40775H389.9ZM259.689 0.781448V5.40775H260.364V0.781448H259.689ZM259.689 14.6604V23.913H260.364V14.6604H259.689ZM259.689 33.1656V42.4182H260.364V33.1656H259.689ZM259.689 51.6708V60.9234H260.364V51.6708H259.689ZM259.689 70.176V79.4286H260.364V70.176H259.689ZM259.689 88.6812V97.9338H260.364V88.6812H259.689ZM259.689 107.186V116.439H260.364V107.186H259.689ZM259.689 125.692V130.318H260.364V125.692H259.689ZM260.026 130.655H264.653V129.981H260.026V130.655ZM273.905 130.655H283.158V129.981H273.905V130.655ZM292.411 130.655H301.663V129.981H292.411V130.655ZM310.916 130.655H320.168V129.981H310.916V130.655ZM329.421 130.655H338.674V129.981H329.421V130.655ZM347.926 130.655H357.179V129.981H347.926V130.655ZM366.431 130.655H375.684V129.981H366.431V130.655ZM384.937 130.655H389.563V129.981H384.937V130.655ZM389.563 130.318V130.993H390.238V130.318H389.563ZM260.026 130.318H259.352V130.993H260.026V130.318ZM390.238 130.318V125.692H388.888V130.318H390.238ZM390.238 116.439V107.186H388.888V116.439H390.238ZM390.238 97.9338V88.6812H388.888V97.9338H390.238ZM390.238 79.4286V70.176H388.888V79.4286H390.238ZM390.238 60.9234V51.6708H388.888V60.9234H390.238ZM390.238 42.4182V33.1656H388.888V42.4182H390.238ZM390.238 23.9129V14.6603H388.888V23.9129H390.238ZM390.238 5.40775V0.781448H388.888V5.40775H390.238ZM259.352 0.781448V5.40775H260.701V0.781448H259.352ZM259.352 14.6604V23.913H260.701V14.6604H259.352ZM259.352 33.1656V42.4182H260.701V33.1656H259.352ZM259.352 51.6708V60.9234H260.701V51.6708H259.352ZM259.352 70.176V79.4286H260.701V70.176H259.352ZM259.352 88.6812V97.9338H260.701V88.6812H259.352ZM259.352 107.186V116.439H260.701V107.186H259.352ZM259.352 125.692V130.318H260.701V125.692H259.352ZM260.026 130.993H264.653V129.643H260.026V130.993ZM273.905 130.993H283.158V129.643H273.905V130.993ZM292.411 130.993H301.663V129.643H292.411V130.993ZM310.916 130.993H320.168V129.643H310.916V130.993ZM329.421 130.993H338.674V129.643H329.421V130.993ZM347.926 130.993H357.179V129.643H347.926V130.993ZM366.431 130.993H375.684V129.643H366.431V130.993ZM384.937 130.993H389.563V129.643H384.937V130.993Z" fill="white" fill-opacity="0.15" mask="url(#path-89-inside-13_1099_6147)"/>
<rect x="259.689" y="777.663" width="128.862" height="128.862" transform="rotate(180 259.689 777.663)" stroke="white" stroke-opacity="0.15" stroke-width="0.674669" stroke-dasharray="9.45 9.45"/>
<rect x="259.689" y="648.126" width="128.862" height="128.862" transform="rotate(180 259.689 648.126)" stroke="white" stroke-opacity="0.15" stroke-width="0.674669" stroke-dasharray="9.45 9.45"/>
<rect x="259.689" y="518.59" width="128.862" height="128.862" transform="rotate(180 259.689 518.59)" stroke="white" stroke-opacity="0.15" stroke-width="0.674669" stroke-dasharray="9.45 9.45"/>
<rect x="259.689" y="389.053" width="128.862" height="128.862" transform="rotate(180 259.689 389.053)" stroke="white" stroke-opacity="0.15" stroke-width="0.674669" stroke-dasharray="9.45 9.45"/>
<rect x="259.689" y="259.517" width="128.862" height="128.862" transform="rotate(180 259.689 259.517)" stroke="white" stroke-opacity="0.15" stroke-width="0.674669" stroke-dasharray="9.45 9.45"/>
<mask id="path-96-inside-14_1099_6147" fill="white">
<path d="M260.026 130.318H130.49V0.781448H260.026V130.318Z"/>
</mask>
<path d="M260.026 130.318V130.655H260.364V130.318H260.026ZM130.49 130.318H130.153V130.655H130.49V130.318ZM260.364 130.318V125.692H259.689V130.318H260.364ZM260.364 116.439V107.186H259.689V116.439H260.364ZM260.364 97.9338V88.6812H259.689V97.9338H260.364ZM260.364 79.4286V70.176H259.689V79.4286H260.364ZM260.364 60.9234V51.6708H259.689V60.9234H260.364ZM260.364 42.4182V33.1656H259.689V42.4182H260.364ZM260.364 23.9129V14.6603H259.689V23.9129H260.364ZM260.364 5.40775V0.781448H259.689V5.40775H260.364ZM130.153 0.781448V5.40775H130.827V0.781448H130.153ZM130.153 14.6604V23.913H130.827V14.6604H130.153ZM130.153 33.1656V42.4182H130.827V33.1656H130.153ZM130.153 51.6708V60.9234H130.827V51.6708H130.153ZM130.153 70.176V79.4286H130.827V70.176H130.153ZM130.153 88.6812V97.9338H130.827V88.6812H130.153ZM130.153 107.186V116.439H130.827V107.186H130.153ZM130.153 125.692V130.318H130.827V125.692H130.153ZM130.49 130.655H135.116V129.981H130.49V130.655ZM144.369 130.655H153.621V129.981H144.369V130.655ZM162.874 130.655H172.127V129.981H162.874V130.655ZM181.379 130.655H190.632V129.981H181.379V130.655ZM199.884 130.655H209.137V129.981H199.884V130.655ZM218.39 130.655H227.642V129.981H218.39V130.655ZM236.895 130.655H246.147V129.981H236.895V130.655ZM255.4 130.655H260.026V129.981H255.4V130.655ZM260.026 130.318V130.993H260.701V130.318H260.026ZM130.49 130.318H129.815V130.993H130.49V130.318ZM260.701 130.318V125.692H259.352V130.318H260.701ZM260.701 116.439V107.186H259.352V116.439H260.701ZM260.701 97.9338V88.6812H259.352V97.9338H260.701ZM260.701 79.4286V70.176H259.352V79.4286H260.701ZM260.701 60.9234V51.6708H259.352V60.9234H260.701ZM260.701 42.4182V33.1656H259.352V42.4182H260.701ZM260.701 23.9129V14.6603H259.352V23.9129H260.701ZM260.701 5.40775V0.781448H259.352V5.40775H260.701ZM129.815 0.781448V5.40775H131.165V0.781448H129.815ZM129.815 14.6604V23.913H131.165V14.6604H129.815ZM129.815 33.1656V42.4182H131.165V33.1656H129.815ZM129.815 51.6708V60.9234H131.165V51.6708H129.815ZM129.815 70.176V79.4286H131.165V70.176H129.815ZM129.815 88.6812V97.9338H131.165V88.6812H129.815ZM129.815 107.186V116.439H131.165V107.186H129.815ZM129.815 125.692V130.318H131.165V125.692H129.815ZM130.49 130.993H135.116V129.643H130.49V130.993ZM144.369 130.993H153.621V129.643H144.369V130.993ZM162.874 130.993H172.127V129.643H162.874V130.993ZM181.379 130.993H190.632V129.643H181.379V130.993ZM199.884 130.993H209.137V129.643H199.884V130.993ZM218.39 130.993H227.642V129.643H218.39V130.993ZM236.895 130.993H246.147V129.643H236.895V130.993ZM255.4 130.993H260.026V129.643H255.4V130.993Z" fill="white" fill-opacity="0.15" mask="url(#path-96-inside-14_1099_6147)"/>
<rect x="130.153" y="777.663" width="128.862" height="128.862" transform="rotate(180 130.153 777.663)" stroke="white" stroke-opacity="0.15" stroke-width="0.674669" stroke-dasharray="9.45 9.45"/>
<rect x="130.153" y="648.126" width="128.862" height="128.862" transform="rotate(180 130.153 648.126)" stroke="white" stroke-opacity="0.15" stroke-width="0.674669" stroke-dasharray="9.45 9.45"/>
<rect x="130.153" y="518.59" width="128.862" height="128.862" transform="rotate(180 130.153 518.59)" stroke="white" stroke-opacity="0.15" stroke-width="0.674669" stroke-dasharray="9.45 9.45"/>
<rect x="130.153" y="389.053" width="128.862" height="128.862" transform="rotate(180 130.153 389.053)" stroke="white" stroke-opacity="0.15" stroke-width="0.674669" stroke-dasharray="9.45 9.45"/>
<rect x="130.153" y="259.517" width="128.862" height="128.862" transform="rotate(180 130.153 259.517)" stroke="white" stroke-opacity="0.15" stroke-width="0.674669" stroke-dasharray="9.45 9.45"/>
<mask id="path-103-inside-15_1099_6147" fill="white">
<path d="M130.49 130.318H0.953568V0.781448H130.49V130.318Z"/>
</mask>
<path d="M130.49 130.318V130.655H130.827V130.318H130.49ZM0.953568 130.318H0.616233V130.655H0.953568V130.318ZM130.827 130.318V125.692H130.153V130.318H130.827ZM130.827 116.439V107.186H130.153V116.439H130.827ZM130.827 97.9338V88.6812H130.153V97.9338H130.827ZM130.827 79.4286V70.176H130.153V79.4286H130.827ZM130.827 60.9234V51.6708H130.153V60.9234H130.827ZM130.827 42.4182V33.1656H130.153V42.4182H130.827ZM130.827 23.9129V14.6603H130.153V23.9129H130.827ZM130.827 5.40775V0.781448H130.153V5.40775H130.827ZM0.616233 0.781448V5.40775H1.2909V0.781448H0.616233ZM0.616233 14.6604V23.913H1.2909V14.6604H0.616233ZM0.616233 33.1656V42.4182H1.2909V33.1656H0.616233ZM0.616233 51.6708V60.9234H1.2909V51.6708H0.616233ZM0.616233 70.176V79.4286H1.2909V70.176H0.616233ZM0.616233 88.6812V97.9338H1.2909V88.6812H0.616233ZM0.616233 107.186V116.439H1.2909V107.186H0.616233ZM0.616233 125.692V130.318H1.2909V125.692H0.616233ZM0.953568 130.655H5.57987V129.981H0.953568V130.655ZM14.8325 130.655H24.0851V129.981H14.8325V130.655ZM33.3377 130.655H42.5903V129.981H33.3377V130.655ZM51.8429 130.655H61.0955V129.981H51.8429V130.655ZM70.3481 130.655H79.6007V129.981H70.3481V130.655ZM88.8533 130.655H98.1059V129.981H88.8533V130.655ZM107.358 130.655H116.611V129.981H107.358V130.655ZM125.864 130.655H130.49V129.981H125.864V130.655ZM130.49 130.318V130.993H131.165V130.318H130.49ZM0.953568 130.318H0.278899V130.993H0.953568V130.318ZM131.165 130.318V125.692H129.815V130.318H131.165ZM131.165 116.439V107.186H129.815V116.439H131.165ZM131.165 97.9338V88.6812H129.815V97.9338H131.165ZM131.165 79.4286V70.176H129.815V79.4286H131.165ZM131.165 60.9234V51.6708H129.815V60.9234H131.165ZM131.165 42.4182V33.1656H129.815V42.4182H131.165ZM131.165 23.9129V14.6603H129.815V23.9129H131.165ZM131.165 5.40775V0.781448H129.815V5.40775H131.165ZM0.278899 0.781448V5.40775H1.62824V0.781448H0.278899ZM0.278899 14.6604V23.913H1.62824V14.6604H0.278899ZM0.278899 33.1656V42.4182H1.62824V33.1656H0.278899ZM0.278899 51.6708V60.9234H1.62824V51.6708H0.278899ZM0.278899 70.176V79.4286H1.62824V70.176H0.278899ZM0.278899 88.6812V97.9338H1.62824V88.6812H0.278899ZM0.278899 107.186V116.439H1.62824V107.186H0.278899ZM0.278899 125.692V130.318H1.62824V125.692H0.278899ZM0.953568 130.993H5.57987V129.643H0.953568V130.993ZM14.8325 130.993H24.0851V129.643H14.8325V130.993ZM33.3377 130.993H42.5903V129.643H33.3377V130.993ZM51.8429 130.993H61.0955V129.643H51.8429V130.993ZM70.3481 130.993H79.6007V129.643H70.3481V130.993ZM88.8533 130.993H98.1059V129.643H88.8533V130.993ZM107.358 130.993H116.611V129.643H107.358V130.993ZM125.864 130.993H130.49V129.643H125.864V130.993Z" fill="white" fill-opacity="0.15" mask="url(#path-103-inside-15_1099_6147)"/>
<line x1="389.563" y1="653.186" x2="389.563" y2="643.741" stroke="url(#paint0_linear_1099_6147)" stroke-width="1.34934"/>
<line x1="394.286" y1="648.464" x2="384.84" y2="648.464" stroke="white" stroke-width="1.34934"/>
<line x1="778.172" y1="653.186" x2="778.172" y2="643.741" stroke="url(#paint1_linear_1099_6147)" stroke-width="1.34934"/>
<line x1="782.895" y1="648.464" x2="773.449" y2="648.464" stroke="white" stroke-width="1.34934"/>
<line x1="907.709" y1="135.041" x2="907.708" y2="125.595" stroke="url(#paint2_linear_1099_6147)" stroke-width="1.34934"/>
<line x1="912.431" y1="130.318" x2="902.986" y2="130.318" stroke="white" stroke-width="1.34934"/>
<line x1="1425.85" y1="653.186" x2="1425.85" y2="643.741" stroke="url(#paint3_linear_1099_6147)" stroke-width="1.34934"/>
<line x1="1430.58" y1="648.464" x2="1421.13" y2="648.464" stroke="white" stroke-width="1.34934"/>
<line x1="1814.46" y1="523.65" x2="1814.46" y2="514.205" stroke="url(#paint4_linear_1099_6147)" stroke-width="1.34934"/>
<line x1="1819.19" y1="518.927" x2="1809.74" y2="518.927" stroke="white" stroke-width="1.34934"/>
<line x1="1555.39" y1="394.113" x2="1555.39" y2="384.668" stroke="url(#paint5_linear_1099_6147)" stroke-width="1.34934"/>
<line x1="1560.11" y1="389.39" x2="1550.67" y2="389.391" stroke="white" stroke-width="1.34934"/>
<line x1="1425.85" y1="135.041" x2="1425.85" y2="125.595" stroke="url(#paint6_linear_1099_6147)" stroke-width="1.34934"/>
<line x1="260.026" y1="394.113" x2="260.026" y2="384.668" stroke="url(#paint7_linear_1099_6147)" stroke-width="1.34934"/>
<line x1="1430.58" y1="130.318" x2="1421.13" y2="130.318" stroke="white" stroke-width="1.34934"/>
<line x1="264.749" y1="389.39" x2="255.304" y2="389.391" stroke="white" stroke-width="1.34934"/>
<line x1="648.636" y1="135.041" x2="648.636" y2="125.595" stroke="url(#paint8_linear_1099_6147)" stroke-width="1.34934"/>
<line x1="653.358" y1="130.318" x2="643.913" y2="130.318" stroke="white" stroke-width="1.34934"/>
<rect x="907.013" y="518.252" width="128.166" height="128.125" transform="rotate(180 907.013 518.252)" fill="#292929" fill-opacity="0.12"/>
<rect x="1684.24" y="259.854" width="128.166" height="128.125" transform="rotate(180 1684.24 259.854)" fill="#292929" fill-opacity="0.12"/>
<rect x="258.656" y="259.148" width="128.166" height="128.125" transform="rotate(180 258.656 259.148)" fill="#292929" fill-opacity="0.12"/>
<rect x="1813.09" y="777.263" width="128.166" height="128.125" transform="rotate(180 1813.09 777.263)" fill="#292929" fill-opacity="0.12"/>
<defs>
<linearGradient id="paint0_linear_1099_6147" x1="390.738" y1="653.186" x2="390.738" y2="643.741" gradientUnits="userSpaceOnUse">
<stop stop-color="white"/>
<stop offset="0.5" stop-color="white"/>
<stop offset="1" stop-color="white"/>
</linearGradient>
<linearGradient id="paint1_linear_1099_6147" x1="779.347" y1="653.186" x2="779.347" y2="643.741" gradientUnits="userSpaceOnUse">
<stop stop-color="white"/>
<stop offset="0.5" stop-color="white"/>
<stop offset="1" stop-color="white"/>
</linearGradient>
<linearGradient id="paint2_linear_1099_6147" x1="908.883" y1="135.041" x2="908.883" y2="125.595" gradientUnits="userSpaceOnUse">
<stop stop-color="white"/>
<stop offset="0.5" stop-color="white"/>
<stop offset="1" stop-color="white"/>
</linearGradient>
<linearGradient id="paint3_linear_1099_6147" x1="1427.03" y1="653.186" x2="1427.03" y2="643.741" gradientUnits="userSpaceOnUse">
<stop stop-color="white"/>
<stop offset="0.5" stop-color="white"/>
<stop offset="1" stop-color="white"/>
</linearGradient>
<linearGradient id="paint4_linear_1099_6147" x1="1815.64" y1="523.65" x2="1815.64" y2="514.205" gradientUnits="userSpaceOnUse">
<stop stop-color="white"/>
<stop offset="0.5" stop-color="white"/>
<stop offset="1" stop-color="white"/>
</linearGradient>
<linearGradient id="paint5_linear_1099_6147" x1="1556.57" y1="394.113" x2="1556.57" y2="384.668" gradientUnits="userSpaceOnUse">
<stop stop-color="white"/>
<stop offset="0.5" stop-color="white"/>
<stop offset="1" stop-color="white"/>
</linearGradient>
<linearGradient id="paint6_linear_1099_6147" x1="1427.03" y1="135.041" x2="1427.03" y2="125.595" gradientUnits="userSpaceOnUse">
<stop stop-color="white"/>
<stop offset="0.5" stop-color="white"/>
<stop offset="1" stop-color="white"/>
</linearGradient>
<linearGradient id="paint7_linear_1099_6147" x1="261.201" y1="394.113" x2="261.201" y2="384.668" gradientUnits="userSpaceOnUse">
<stop stop-color="white"/>
<stop offset="0.5" stop-color="white"/>
<stop offset="1" stop-color="white"/>
</linearGradient>
<linearGradient id="paint8_linear_1099_6147" x1="649.81" y1="135.041" x2="649.81" y2="125.595" gradientUnits="userSpaceOnUse">
<stop stop-color="white"/>
<stop offset="0.5" stop-color="white"/>
<stop offset="1" stop-color="white"/>
</linearGradient>
</defs>
</svg>
